Coordinates
version=1
nRows=19
nColumns=33
inDegrees=yes

Units are S.I. units (second, meters, Newtons, ...)
Angles are in degrees.

endheader
time	ground_thorax_rot_x	ground_thorax_rot_y	ground_thorax_rot_z	ground_thorax_tx	ground_thorax_ty	ground_thorax_tz	clav_prot_r	clav_elev_r	scapula_abduction_r	scapula_elevation_r	scapula_upward_rot_r	scapula_winging_r	shoulder_elv_r	plane_of_elev_r	axial_rot_r	elbow_flexion_r	pro_sup_r	wrist_flex_r	wrist_dev_r	clav_prot_l	clav_elev_l	scapula_abduction_l	scapula_elevation_l	scapula_upward_rot_l	scapula_winging_l	shoulder_elv_l	plane_of_elev_l	axial_rot_l	elbow_flexion_l	pro_sup_l	wrist_flex_l	wrist_dev_l
      5.07000000	    -29.90224952	    -28.87388337	     37.06181798	    -78.94913173	    847.24411071	    -47.29338513	     27.59718790	    -45.00000000	     40.63862091	    -45.00000000	    -45.00000000	    251.32239713	   3316.10152770	     21.13193635	   -146.58275168	   2877.28553940	    152.03181949	     15.17166116	     14.71046195	     -4.09628878	     38.42596307	    -34.45987887	    -45.00000000	    -22.96519397	   5140.35114712	  -3343.37523196	    142.88079488	    179.99999979	   2881.68008700	   -314.72263361	     10.25579132	    -24.99999983
      5.08000000	    -29.76477141	    -29.07148770	     37.28978350	    -76.86110360	    846.97431183	    -47.36699327	     27.29392736	    -45.00000000	     40.68266071	    -45.00000000	    -45.00000000	    251.63277367	   3316.04283279	     21.03203923	   -147.16980276	   2877.18021776	    151.90571778	     15.14052762	     14.76088118	     -3.85097314	     38.55633120	    -34.60286066	    -45.00000000	    -22.80214874	   5140.35414994	  -3343.44620393	    142.91010314	    179.99999979	   2881.79117022	   -314.69141485	     10.28213057	    -24.99999983
      5.09000000	    -29.57096892	    -29.30835755	     37.64060380	    -74.66917731	    846.66100554	    -47.44184828	     27.34265611	    -45.00000000	     40.72968393	    -45.00000000	    -45.00000000	    251.80006380	   3315.96077014	     21.09963142	   -147.62515300	   2877.17825270	    151.82107974	     15.05748139	     14.81564436	     -3.85767976	     38.58442590	    -34.67869852	    -45.00000000	    -22.58785557	   5140.39064423	  -3343.48503049	    142.86607884	    179.99999979	   2881.87824235	   -314.67849282	     10.37710487	    -24.99999983
      5.10000000	    -29.38857647	    -29.54855915	     37.93655078	    -72.37996817	    846.29871164	    -47.51715392	     27.12102345	    -45.00000000	     40.72771038	    -45.00000000	    -45.00000000	    252.09949120	   3315.93746913	     21.10135029	   -148.20519481	   2877.15525817	    151.75082965	     14.96883617	     14.86301987	     -3.72394591	     38.67489024	    -34.79268765	    -45.00000000	    -22.35199197	   5140.37781968	  -3343.53292958	    142.96065839	    179.99999979	   2881.97832137	   -314.71671160	     10.45388671	    -24.99999983
      5.11000000	    -29.27917816	    -29.71816311	     38.17310569	    -70.00022632	    845.88382234	    -47.59091376	     26.91171822	    -45.00000000	     40.60878410	    -45.00000000	    -45.00000000	    252.34264955	   3315.86406358	     21.22610200	   -148.85312457	   2877.15191782	    151.70917020	     14.83615836	     14.94938485	     -3.70497836	     38.70417475	    -34.94198833	    -45.00000000	    -21.91800589	   5140.36740170	  -3343.59608097	    143.06246107	    179.99999979	   2882.07101333	   -314.80056442	     10.59173691	    -24.99999983
      5.12000000	    -28.81937722	    -30.23861552	     38.92605798	    -67.53037174	    845.41414037	    -47.66083829	     27.52691957	    -45.00000000	     40.95278153	    -45.00000000	    -45.00000000	    252.26958851	   3315.70043535	     21.31241039	   -148.96099404	   2877.12481984	    151.75204655	     14.77574468	     15.00860525	     -3.93317394	     38.61721064	    -34.88955712	    -45.00000000	    -22.12205997	   5140.49674190	  -3343.56904738	    142.84452053	    179.99999979	   2882.05663854	   -314.87364172	     10.79105531	    -24.99999983
      5.13000000	    -28.52853402	    -30.55778639	     39.38750468	    -64.97685905	    844.88869187	    -47.72385782	     27.54499094	    -45.00000000	     41.03528180	    -45.00000000	    -45.00000000	    252.44037357	   3315.60049322	     21.37929516	   -149.33719269	   2877.14529755	    151.77535491	     14.65327832	     15.08089005	     -3.89228938	     38.61430138	    -34.92124145	    -45.00000000	    -22.06541127	   5140.52105390	  -3343.66838513	    142.77398675	    179.99999979	   2882.04582271	   -315.00421053	     10.98905931	    -24.99999983
      5.14000000	    -28.48533455	    -30.65907430	     39.55202531	    -62.34524617	    844.30899689	    -47.77729960	     26.96753621	    -45.00000000	     40.78127073	    -45.00000000	    -45.00000000	    252.92335079	   3315.60008080	     21.33288446	   -150.11400126	   2877.22147313	    151.78913675	     14.46087920	     15.13450283	     -3.66152751	     38.80866850	    -35.14770470	    -45.00000000	    -21.34017357	   5140.50435423	  -3343.76685284	    143.02637929	    179.99999979	   2882.11868320	   -315.24509760	     11.14709057	    -24.99999983
      5.15000000	    -28.16906295	    -31.04624028	     40.07634805	    -59.63805685	    843.67809144	    -47.81739967	     27.00674048	    -45.00000000	     40.85370725	    -45.00000000	    -45.00000000	    253.11995767	   3315.51982971	     21.38752604	   -150.48080081	   2877.23402429	    151.89296916	     14.34315276	     15.18268805	     -3.65299277	     38.82751699	    -35.18343009	    -45.00000000	    -21.14510213	   5140.58697835	  -3343.80492148	    143.01611989	    179.99999979	   2882.10106083	   -315.45852014	     11.37193100	    -24.99999983
      5.16000000	    -27.69557440	    -31.51787219	     40.83735095	    -56.85778908	    842.99823430	    -47.84164897	     27.52765039	    -45.00000000	     41.19676435	    -45.00000000	    -45.00000000	    253.04374420	   3315.29773413	     21.43583337	   -150.53107224	   2877.14208569	    152.04707082	     14.25234357	     15.29639975	     -3.84513353	     38.75106219	    -35.15454913	    -45.00000000	    -21.28780283	   5140.75933469	  -3343.88151500	    142.77672937	    179.99999979	   2881.97724508	   -315.62958112	     11.66753207	    -24.99999983
      5.17000000	    -27.15631328	    -32.02704459	     41.71077435	    -54.00302030	    842.27240181	    -47.84024309	     28.07187971	    -45.00000000	     41.34158611	    -45.00000000	    -45.00000000	    252.90950930	   3315.17151013	     21.72197356	   -150.53315239	   2877.33694459	    152.19389730	     14.05911106	     15.34413308	     -4.30903615	     38.59068992	    -35.00069898	    -45.00000000	    -21.26869641	   5140.76208561	  -3343.85779149	    142.65033061	    179.99999979	   2881.86546323	   -315.81236861	     11.98704226	    -24.99999983
      5.18000000	    -27.15720086	    -32.15695738	     41.75928690	    -51.07417252	    841.49951501	    -47.81506655	     27.20630167	    -45.00000000	     41.14028551	    -45.00000000	    -45.00000000	    253.62005560	   3315.20274791	     21.47949226	   -151.34442946	   2877.24218516	    152.32953528	     13.90929468	     15.40347476	     -3.76815306	     38.93591731	    -35.36123328	    -45.00000000	    -20.39191307	   5140.93440690	  -3344.08177083	    142.95924047	    179.99999979	   2881.79227758	   -316.08971628	     12.15926103	    -24.99999983
      5.19000000	    -26.89399666	    -32.41854920	     42.23503073	    -48.08446180	    840.68145703	    -47.76900389	     27.12665546	    -45.00000000	     41.15199445	    -45.00000000	    -45.00000000	    253.84366768	   3315.08086054	     21.46023403	   -151.64825329	   2877.26143698	    152.57939768	     13.76989297	     15.44833194	     -3.72302406	     39.00217402	    -35.44739446	    -45.00000000	    -19.89533363	   5141.07010165	  -3344.23937412	    142.94872151	    179.99999979	   2881.64385610	   -316.25326398	     12.42681378	    -24.99999983
      5.20000000	    -26.57843736	    -32.76324719	     42.75477700	    -45.04619356	    839.81618240	    -47.71372185	     27.09476543	    -45.00000000	     41.15370590	    -45.00000000	    -45.00000000	    254.06647962	   3314.99828181	     21.52348696	   -151.94710642	   2877.31936173	    152.87637641	     13.60466855	     15.50728182	     -3.75829326	     39.03920582	    -35.51353298	    -45.00000000	    -19.52169254	   5141.18338856	  -3344.34577806	    142.99337413	    179.99999979	   2881.51189262	   -316.40056080	     12.68682094	    -24.99999983
      5.21000000	    -26.23530546	    -33.09566377	     43.31634427	    -41.96637233	    838.90484065	    -47.65083015	     27.08757450	    -45.00000000	     41.19141907	    -45.00000000	    -45.00000000	    254.24723900	   3314.88945180	     21.55801303	   -152.17010292	   2877.36605465	    153.22873235	     13.46099516	     15.55129441	     -3.79296292	     39.06967466	    -35.51522455	    -45.00000000	    -19.19503211	   5141.27527042	  -3344.46640937	    142.98224909	    179.99999979	   2881.38416553	   -316.49406453	     12.93896933	    -24.99999983
      5.22000000	    -25.50341402	    -33.65947803	     44.44624723	    -38.85033627	    837.94817819	    -47.58829067	     27.85012832	    -45.00000000	     41.59068106	    -45.00000000	    -45.00000000	    254.02214598	   3314.71327479	     21.61592402	   -151.88769626	   2877.38397182	    153.60973777	     13.35853781	     15.62089660	     -4.16470379	     38.91165823	    -35.22706992	    -45.00000000	    -19.53112104	   5141.33815583	  -3344.53437054	    142.65298457	    179.99999979	   2881.28401435	   -316.55950025	     13.23041894	    -24.99999983
      5.23000000	    -25.60543774	    -33.66950650	     44.39344461	    -35.69444238	    836.94719652	    -47.52421914	     27.08113626	    -45.00000000	     41.19398530	    -45.00000000	    -45.00000000	    254.59041334	   3314.66270614	     21.61219660	   -152.60555573	   2877.47469526	    154.01138537	     13.16903961	     15.65203158	     -3.87205441	     39.09455163	    -35.60580403	    -45.00000000	    -18.58727284	   5141.44071801	  -3344.76889420	    143.00028103	    179.99999979	   2881.21685941	   -316.49353837	     13.39210387	    -24.99999983
      5.24000000	    -24.77676079	    -34.28616680	     45.64672658	    -32.49928256	    835.90748730	    -47.45584787	     27.96536054	    -45.00000000	     41.65395829	    -45.00000000	    -45.00000000	    254.30485785	   3314.49357824	     21.66779969	   -152.07163859	   2877.47232713	    154.48926368	     13.13888855	     15.67618819	     -4.16676764	     38.90888142	    -35.36399058	    -45.00000000	    -19.31961468	   5141.54238135	  -3344.85701790	    142.57892129	    179.99999979	   2881.06674631	   -316.46873109	     13.66250540	    -24.99999983
      5.25000000	    -24.50662318	    -34.54121905	     46.10226994	    -29.25419499	    834.83025595	    -47.37379987	     27.56907707	    -45.00000000	     41.60991015	    -45.00000000	    -45.00000000	    254.69897805	   3314.44589629	     21.50725214	   -152.33397346	   2877.47461841	    154.92526433	     13.05053160	     15.64956104	     -3.94742032	     39.03998577	    -35.40421243	    -45.00000000	    -18.92317553	   5141.52107768	  -3344.98881659	    142.74426941	    179.99999979	   2880.97989848	   -316.39652676	     13.77778872	    -24.99999983
